<?xml version="1.0" encoding="UTF-8" standalone="no"?>
<svg id="Capa_1" xmlns:rdf="http://www.w3.org/1999/02/22-rdf-syntax-ns#" xmlns="http://www.w3.org/2000/svg" xml:space="preserve" viewBox="0 0 30.192687 30.192688" height="32" width="32" version="1.1" y="0px" x="0px" xmlns:cc="http://creativecommons.org/ns#" xmlns:dc="http://purl.org/dc/elements/1.1/"><metadata id="metadata10"><rdf:RDF><cc:Work rdf:about=""><dc:format>image/svg+xml</dc:format><dc:type rdf:resource="http://purl.org/dc/dcmitype/StillImage"/><dc:title/></cc:Work></rdf:RDF></metadata><g id="g3" transform="matrix(.064418 0 0 0.0625 -.46317 0)"><g id="g5"><path id="path7" fill="#454345" d="m332.74 315.35c30.883-33.433 50.15-78.2 50.15-127.5 0-103.42-84.15-187.85-187.85-187.85s-187.85 84.433-187.85 187.85 84.15 187.85 187.85 187.85c42.217 0 81.033-13.883 112.48-37.4l139.68 139.68c3.4 3.4 7.65 5.1 11.9 5.1s8.783-1.7 11.9-5.1c6.517-6.517 6.517-17.283 0-24.083l-138.26-138.55zm-291.55-127.5c0-84.72 68.85-153.85 153.85-153.85 84.717 0 153.85 68.85 153.85 153.85s-68.85 153.85-153.85 153.85-153.85-69.13-153.85-153.85z"/></g></g></svg>
